name C:\Users\antoi\Documents\MyRepositories\upper-imu-dc\Results\main_tracking\Case_70\ABD01_angularVelocities_bodyFrame.mot
datacolumns 4
datarows 94
range 6.31000000 7.24000000
endheader 
time	radius_imu_x	radius_imu_y	radius_imu_z	
          6.31000000	         -0.55154081	         -0.33414476	          0.35076661	
          6.32000000	         -0.55111875	         -0.32745067	          0.35441828	
          6.33000000	         -0.55053830	         -0.32041877	          0.35710928	
          6.34000000	         -0.54972138	         -0.31316415	          0.35875472	
          6.35000000	         -0.54858996	         -0.30581712	          0.35928009	
          6.36000000	         -0.54706855	         -0.29852832	          0.35862296	
          6.37000000	         -0.54508817	         -0.29147013	          0.35673557	
          6.38000000	         -0.54259127	         -0.28483073	          0.35358796	
          6.39000000	         -0.53953717	         -0.27879815	          0.34917168	
          6.40000000	         -0.53590689	         -0.27353468	          0.34350153	
          6.41000000	         -0.53170713	         -0.26914788	          0.33661559	
          6.42000000	         -0.52696973	         -0.26566905	          0.32857775	
          6.43000000	         -0.52174696	         -0.26304624	          0.31947213	
          6.44000000	         -0.51610588	         -0.26115567	          0.30939256	
          6.45000000	         -0.51012067	         -0.25982997	          0.29844096	
          6.46000000	         -0.50386380	         -0.25889236	          0.28672781	
          6.47000000	         -0.49740081	         -0.25818728	          0.27437203	
          6.48000000	         -0.49079025	         -0.25760240	          0.26150363	
          6.49000000	         -0.48408720	         -0.25707822	          0.24826699	
          6.50000000	         -0.47734600	         -0.25660593	          0.23482503	
          6.51000000	         -0.47062225	         -0.25621808	          0.22136172	
          6.52000000	         -0.46397531	         -0.25597635	          0.20807580	
          6.53000000	         -0.45746769	         -0.25596115	          0.19516953	
          6.54000000	         -0.45115897	         -0.25626398	          0.18284003	
          6.55000000	         -0.44509967	         -0.25698367	          0.17127168	
          6.56000000	         -0.43932643	         -0.25822616	          0.16062979	
          6.57000000	         -0.43385715	         -0.26010349	          0.15105617	
          6.58000000	         -0.42868816	         -0.26273011	          0.14266731	
          6.59000000	         -0.42379362	         -0.26621561	          0.13555433	
          6.60000000	         -0.41912768	         -0.27065635	          0.12978311	
          6.61000000	         -0.41462882	         -0.27612612	          0.12539204	
          6.62000000	         -0.41022650	         -0.28266785	          0.12238780	
          6.63000000	         -0.40584843	         -0.29028847	          0.12074311	
          6.64000000	         -0.40142221	         -0.29895731	          0.12040306	
          6.65000000	         -0.39687896	         -0.30860539	          0.12128280	
          6.66000000	         -0.39215997	         -0.31912659	          0.12326267	
          6.67000000	         -0.38721521	         -0.33038188	          0.12619255	
          6.68000000	         -0.38200580	         -0.34220674	          0.12989849	
          6.69000000	         -0.37650322	         -0.35441827	          0.13419100	
          6.70000000	         -0.37068591	         -0.36682102	          0.13887064	
          6.71000000	         -0.36454044	         -0.37921117	          0.14373417	
          6.72000000	         -0.35805972	         -0.39137765	          0.14858231	
          6.73000000	         -0.35123961	         -0.40310182	          0.15322645	
          6.74000000	         -0.34407515	         -0.41415885	          0.15749503	
          6.75000000	         -0.33655918	         -0.42432315	          0.16123915	
          6.76000000	         -0.32868071	         -0.43337586	          0.16433486	
          6.77000000	         -0.32042324	         -0.44111263	          0.16668597	
          6.78000000	         -0.31176665	         -0.44735009	          0.16822723	
          6.79000000	         -0.30269191	         -0.45192979	          0.16892585	
          6.80000000	         -0.29318614	         -0.45471947	          0.16878115	
          6.81000000	         -0.28324690	         -0.45561215	          0.16782152	
          6.82000000	         -0.27288641	         -0.45452229	          0.16609798	
          6.83000000	         -0.26213346	         -0.45137885	          0.16367478	
          6.84000000	         -0.25103143	         -0.44611980	          0.16061870	
          6.85000000	         -0.23963154	         -0.43868657	          0.15698705	
          6.86000000	         -0.22798523	         -0.42902043	          0.15281953	
          6.87000000	         -0.21614203	         -0.41706190	          0.14813899	
          6.88000000	         -0.20414476	         -0.40275432	          0.14295181	
          6.89000000	         -0.19202291	         -0.38605194	          0.13725001	
          6.90000000	         -0.17979429	         -0.36693341	          0.13101996	
          6.91000000	         -0.16747012	         -0.34541552	          0.12425100	
          6.92000000	         -0.15506007	         -0.32156586	          0.11694170	
          6.93000000	         -0.14257570	         -0.29551309	          0.10910365	
          6.94000000	         -0.13003244	         -0.26744868	          0.10076299	
          6.95000000	         -0.11744701	         -0.23761739	          0.09195971	
          6.96000000	         -0.10483153	         -0.20629851	          0.08274519	
          6.97000000	         -0.09219208	         -0.17378220	          0.07317488	
          6.98000000	         -0.07951842	         -0.14034599	          0.06330216	
          6.99000000	         -0.06677093	         -0.10623392	          0.05316308	
          7.00000000	         -0.05388059	         -0.07164837	          0.04277286	
          7.01000000	         -0.04073777	         -0.03674583	          0.03211840	
          7.02000000	         -0.02718516	         -0.00163702	          0.02114708	
          7.03000000	         -0.01302159	          0.03360321	          0.00977040	
          7.04000000	          0.00198973	          0.06891952	         -0.00212614	
          7.05000000	          0.01811151	          0.10425623	         -0.01467531	
          7.06000000	          0.03561555	          0.13953138	         -0.02801283	
          7.07000000	          0.05476272	          0.17460914	         -0.04225320	
          7.08000000	          0.07578279	          0.20928554	         -0.05748895	
          7.09000000	          0.09885885	          0.24328383	         -0.07378815	
          7.10000000	          0.12411481	          0.27625680	         -0.09118306	
          7.11000000	          0.15160439	          0.30779804	         -0.10966749	
          7.12000000	          0.18131181	          0.33746009	         -0.12919885	
          7.13000000	          0.21315260	          0.36477576	         -0.14970032	
          7.14000000	          0.24698141	          0.38928553	         -0.17106420	
          7.15000000	          0.28260491	          0.41057042	         -0.19315427	
          7.16000000	          0.31979624	          0.42828902	         -0.21581161	
          7.17000000	          0.35830785	          0.44220828	         -0.23885223	
          7.18000000	          0.39788257	          0.45222447	         -0.26206617	
          7.19000000	          0.43826486	          0.45837062	         -0.28522672	
          7.20000000	          0.47920493	          0.46080313	         -0.30809222	
          7.21000000	          0.52046254	          0.45977687	         -0.33041191	
          7.22000000	          0.56181059	          0.45561575	         -0.35193650	
          7.23000000	          0.60303383	          0.44867983	         -0.37241678	
          7.24000000	          0.64393351	          0.43934339	         -0.39161363	
